<svg xmlns="http://www.w3.org/2000/svg" width="860" height="316" viewBox="0 0 860 316">
  <defs>
    <style>
      text { font-family: 'Space Grotesk', ui-sans-serif, system-ui, sans-serif; }
    </style>
    <linearGradient id="bg-grad" x1="0%" y1="0%" x2="100%" y2="100%">
      <stop offset="0%" stop-color="#0a121e" />
      <stop offset="100%" stop-color="#22364d" />
    </linearGradient>
  </defs>

  <!-- background -->
  <rect width="860" height="316" rx="18" fill="url(#bg-grad)" />
  <rect width="860" height="316" rx="18" fill="none" stroke="rgba(180,204,235,0.25)" stroke-width="1" />

  <!-- header -->
  <text x="16" y="28" font-size="16" font-weight="700" fill="#eef4ff">Fetch Reliability Arena</text>
  <text x="16" y="44" font-size="10" fill="#8ea2c0">19/04/2026, 13:12:55</text>
  <text x="844" y="28" font-size="10" fill="#00d1b2" text-anchor="end">ffetch-demo</text>

  
    <g transform="translate(16,52)">
      <rect width="268" height="190" rx="10" fill="#16263a" opacity="0.9" />

      <!-- header -->
      <text x="16" y="22" font-size="13" font-weight="700" fill="#eef4ff">retry</text>
      <text x="252" y="22" font-size="13" font-weight="700" fill="#53e087" text-anchor="end">90<tspan font-size="10" font-weight="400" fill="#8ea2c0"> score</tspan></text>

      <!-- mix bar -->
      <g transform="translate(16, 32)">
        <rect width="236" height="10" rx="5" fill="#22364d" />
        <clipPath id="mix-clip-retry">
          <rect width="236" height="10" rx="5" />
        </clipPath>
        <g clip-path="url(#mix-clip-retry)">
          <rect x="0.0" y="0" width="236.0" height="10" fill="#53e087" />
        </g>
      </g>

      <!-- success label -->
      <text x="16" y="56" font-size="9" fill="#8ea2c0">150/150 OK</text>

      <!-- metric cells -->
      <g transform="translate(16, 64)">
        
    <g transform="translate(0, 0)">
      
      <rect x="0" y="0" width="74.66666666666667" height="46" rx="6" fill="#0f1722" opacity="0.55" />
      <text x="37.333333333333336" y="16" text-anchor="middle" font-size="10" fill="#8ea2c0">p50</text>
      <text x="37.333333333333336" y="36" text-anchor="middle" font-size="15" font-weight="700" fill="#eef4ff">1763ms</text>
    
      
      <rect x="78.66666666666667" y="0" width="74.66666666666667" height="46" rx="6" fill="#0f1722" opacity="0.55" />
      <text x="116" y="16" text-anchor="middle" font-size="10" fill="#8ea2c0">p95</text>
      <text x="116" y="36" text-anchor="middle" font-size="15" font-weight="700" fill="#b8c8df">2867ms</text>
    
      
      <rect x="157.33333333333334" y="0" width="74.66666666666667" height="46" rx="6" fill="#0f1722" opacity="0.55" />
      <text x="194.66666666666669" y="16" text-anchor="middle" font-size="10" fill="#8ea2c0">p99</text>
      <text x="194.66666666666669" y="36" text-anchor="middle" font-size="15" font-weight="700" fill="#8ea2c0">2943ms</text>
    
    </g>
  
        
    <g transform="translate(0, 54)">
      
      <rect x="0" y="0" width="114" height="46" rx="6" fill="#0f1722" opacity="0.55" />
      <text x="57" y="16" text-anchor="middle" font-size="10" fill="#8ea2c0">error rate</text>
      <text x="57" y="36" text-anchor="middle" font-size="15" font-weight="700" fill="#eef4ff">0.0%</text>
    
      
      <rect x="118" y="0" width="114" height="46" rx="6" fill="#0f1722" opacity="0.55" />
      <text x="175" y="16" text-anchor="middle" font-size="10" fill="#8ea2c0">throughput</text>
      <text x="175" y="36" text-anchor="middle" font-size="15" font-weight="700" fill="#eef4ff">0.58 rps</text>
    
    </g>
  
      </g>
    </g>
  
    <g transform="translate(296,52)">
      <rect width="268" height="190" rx="10" fill="#16263a" opacity="0.9" />

      <!-- header -->
      <text x="16" y="22" font-size="13" font-weight="700" fill="#eef4ff">hedge</text>
      <text x="252" y="22" font-size="13" font-weight="700" fill="#53e087" text-anchor="end">87<tspan font-size="10" font-weight="400" fill="#8ea2c0"> score</tspan></text>

      <!-- mix bar -->
      <g transform="translate(16, 32)">
        <rect width="236" height="10" rx="5" fill="#22364d" />
        <clipPath id="mix-clip-hedge">
          <rect width="236" height="10" rx="5" />
        </clipPath>
        <g clip-path="url(#mix-clip-hedge)">
          <rect x="0.0" y="0" width="228.1" height="10" fill="#53e087" /><rect x="228.1" y="0" width="7.9" height="10" fill="#ff4f64" />
        </g>
      </g>

      <!-- success label -->
      <text x="16" y="56" font-size="9" fill="#8ea2c0">145/150 OK</text>

      <!-- metric cells -->
      <g transform="translate(16, 64)">
        
    <g transform="translate(0, 0)">
      
      <rect x="0" y="0" width="74.66666666666667" height="46" rx="6" fill="#0f1722" opacity="0.55" />
      <text x="37.333333333333336" y="16" text-anchor="middle" font-size="10" fill="#8ea2c0">p50</text>
      <text x="37.333333333333336" y="36" text-anchor="middle" font-size="15" font-weight="700" fill="#eef4ff">1099ms</text>
    
      
      <rect x="78.66666666666667" y="0" width="74.66666666666667" height="46" rx="6" fill="#0f1722" opacity="0.55" />
      <text x="116" y="16" text-anchor="middle" font-size="10" fill="#8ea2c0">p95</text>
      <text x="116" y="36" text-anchor="middle" font-size="15" font-weight="700" fill="#b8c8df">2414ms</text>
    
      
      <rect x="157.33333333333334" y="0" width="74.66666666666667" height="46" rx="6" fill="#0f1722" opacity="0.55" />
      <text x="194.66666666666669" y="16" text-anchor="middle" font-size="10" fill="#8ea2c0">p99</text>
      <text x="194.66666666666669" y="36" text-anchor="middle" font-size="15" font-weight="700" fill="#8ea2c0">2823ms</text>
    
    </g>
  
        
    <g transform="translate(0, 54)">
      
      <rect x="0" y="0" width="114" height="46" rx="6" fill="#0f1722" opacity="0.55" />
      <text x="57" y="16" text-anchor="middle" font-size="10" fill="#8ea2c0">error rate</text>
      <text x="57" y="36" text-anchor="middle" font-size="15" font-weight="700" fill="#eef4ff">3.3%</text>
    
      
      <rect x="118" y="0" width="114" height="46" rx="6" fill="#0f1722" opacity="0.55" />
      <text x="175" y="16" text-anchor="middle" font-size="10" fill="#8ea2c0">throughput</text>
      <text x="175" y="36" text-anchor="middle" font-size="15" font-weight="700" fill="#eef4ff">0.83 rps</text>
    
    </g>
  
      </g>
    </g>
  
    <g transform="translate(576,52)">
      <rect width="268" height="190" rx="10" fill="#16263a" opacity="0.9" />

      <!-- header -->
      <text x="16" y="22" font-size="13" font-weight="700" fill="#eef4ff">retry+hedge</text>
      <text x="252" y="22" font-size="13" font-weight="700" fill="#53e087" text-anchor="end">90<tspan font-size="10" font-weight="400" fill="#8ea2c0"> score</tspan></text>

      <!-- mix bar -->
      <g transform="translate(16, 32)">
        <rect width="236" height="10" rx="5" fill="#22364d" />
        <clipPath id="mix-clip-retryhedge">
          <rect width="236" height="10" rx="5" />
        </clipPath>
        <g clip-path="url(#mix-clip-retryhedge)">
          <rect x="0.0" y="0" width="236.0" height="10" fill="#53e087" />
        </g>
      </g>

      <!-- success label -->
      <text x="16" y="56" font-size="9" fill="#8ea2c0">150/150 OK</text>

      <!-- metric cells -->
      <g transform="translate(16, 64)">
        
    <g transform="translate(0, 0)">
      
      <rect x="0" y="0" width="74.66666666666667" height="46" rx="6" fill="#0f1722" opacity="0.55" />
      <text x="37.333333333333336" y="16" text-anchor="middle" font-size="10" fill="#8ea2c0">p50</text>
      <text x="37.333333333333336" y="36" text-anchor="middle" font-size="15" font-weight="700" fill="#eef4ff">1125ms</text>
    
      
      <rect x="78.66666666666667" y="0" width="74.66666666666667" height="46" rx="6" fill="#0f1722" opacity="0.55" />
      <text x="116" y="16" text-anchor="middle" font-size="10" fill="#8ea2c0">p95</text>
      <text x="116" y="36" text-anchor="middle" font-size="15" font-weight="700" fill="#b8c8df">2510ms</text>
    
      
      <rect x="157.33333333333334" y="0" width="74.66666666666667" height="46" rx="6" fill="#0f1722" opacity="0.55" />
      <text x="194.66666666666669" y="16" text-anchor="middle" font-size="10" fill="#8ea2c0">p99</text>
      <text x="194.66666666666669" y="36" text-anchor="middle" font-size="15" font-weight="700" fill="#8ea2c0">3015ms</text>
    
    </g>
  
        
    <g transform="translate(0, 54)">
      
      <rect x="0" y="0" width="114" height="46" rx="6" fill="#0f1722" opacity="0.55" />
      <text x="57" y="16" text-anchor="middle" font-size="10" fill="#8ea2c0">error rate</text>
      <text x="57" y="36" text-anchor="middle" font-size="15" font-weight="700" fill="#eef4ff">0.0%</text>
    
      
      <rect x="118" y="0" width="114" height="46" rx="6" fill="#0f1722" opacity="0.55" />
      <text x="175" y="16" text-anchor="middle" font-size="10" fill="#8ea2c0">throughput</text>
      <text x="175" y="36" text-anchor="middle" font-size="15" font-weight="700" fill="#eef4ff">0.78 rps</text>
    
    </g>
  
      </g>
    </g>
  
  
    <g transform="translate(16, 258)">
      <text x="0" y="10" font-size="10" fill="#8ea2c0">Legend</text>
      
        <rect x="0" y="18" width="9" height="9" rx="2" fill="#53e087" />
        <text x="15" y="26" font-size="10" fill="#b8c8df">OK</text>
      
        <rect x="414" y="18" width="9" height="9" rx="2" fill="#ff4f64" />
        <text x="429" y="26" font-size="10" fill="#b8c8df">HTTP 500</text>
      
    </g>
  
</svg>